<svg width="148" height="144" viewBox="0 0 148 144" fill="none" xmlns="http://www.w3.org/2000/svg">
<g clip-path="url(#clip0_214_4386)">
<path d="M69.1364 126.69C98.3365 126.69 122.008 103.278 122.008 74.3984C122.008 45.5186 98.3365 22.1069 69.1364 22.1069C39.9363 22.1069 16.2649 45.5186 16.2649 74.3984C16.2649 103.278 39.9363 126.69 69.1364 126.69Z" stroke="#920E14" stroke-width="10" stroke-miterlimit="10"/>
<path d="M50.3201 49.3704C48.8038 49.3704 47.3215 49.815 46.0607 50.648C44.7999 51.481 43.817 52.665 43.2365 54.0504C42.6559 55.4358 42.5036 56.9603 42.7989 58.4312C43.0942 59.9021 43.8239 61.2535 44.8955 62.3144C45.9672 63.3753 47.3329 64.0981 48.8199 64.3915C50.3069 64.6849 51.8484 64.5357 53.2497 63.9627C54.6509 63.3898 55.849 62.4188 56.6924 61.1725C57.5358 59.9263 57.9867 58.4607 57.988 56.9611C57.988 54.9491 57.1804 53.0194 55.7426 51.596C54.3047 50.1727 52.3544 49.3722 50.3201 49.3704ZM51.9979 56.9611C51.3438 56.9611 50.7044 56.7692 50.1606 56.4098C49.6167 56.0504 49.1928 55.5396 48.9425 54.9419C48.6922 54.3443 48.6267 53.6866 48.7543 53.0522C48.8819 52.4177 49.1969 51.8349 49.6594 51.3775C50.1219 50.92 50.7112 50.6085 51.3527 50.4823C51.9942 50.3561 52.6591 50.4209 53.2634 50.6685C53.8677 50.916 54.3842 51.3352 54.7476 51.8731C55.111 52.411 55.3049 53.0434 55.3049 53.6903C55.3049 54.5577 54.9565 55.3897 54.3363 56.0031C53.7161 56.6165 52.875 56.9611 51.9979 56.9611Z" fill="#920E14" stroke="#920E14" stroke-width="3.42" stroke-miterlimit="10"/>
<path d="M87.9665 49.3704C86.45 49.3704 84.9674 49.8151 83.7065 50.6485C82.4455 51.4818 81.4626 52.6662 80.8823 54.052C80.3019 55.4378 80.1501 56.9626 80.4459 58.4337C80.7418 59.9049 81.4721 61.2562 82.5445 62.3168C83.6169 63.3774 84.9832 64.0997 86.4706 64.3923C87.958 64.6849 89.4998 64.5348 90.9009 63.9608C92.3021 63.3867 93.4997 62.4147 94.3422 61.1676C95.1848 59.9204 95.6345 58.4541 95.6345 56.9542C95.6327 54.9434 94.8242 53.0155 93.3866 51.5936C91.949 50.1718 89.9997 49.3722 87.9665 49.3704ZM89.6166 56.9542C88.9614 56.9583 88.3197 56.7697 87.773 56.4125C87.2262 56.0553 86.7991 55.5455 86.5458 54.9478C86.2925 54.3501 86.2245 53.6915 86.3503 53.0555C86.4761 52.4195 86.7901 51.8348 87.2525 51.3756C87.7148 50.9163 88.3047 50.6033 88.9472 50.4762C89.5897 50.3491 90.256 50.4137 90.8613 50.6616C91.4667 50.9096 91.984 51.3299 92.3474 51.8691C92.7109 52.4084 92.9042 53.0422 92.9029 53.6903C92.9029 54.5542 92.5573 55.383 91.9416 55.9958C91.3259 56.6086 90.4901 56.9556 89.6166 56.9611V56.9542Z" fill="#920E14" stroke="#920E14" stroke-width="3.42" stroke-miterlimit="10"/>
<path d="M69.1364 92.9329L90.7606 93.0083C90.7121 103.068 80.9642 111.31 69.1364 111.31C57.3086 111.31 47.5122 103.013 47.5122 92.9329H69.1364Z" fill="#920E14" stroke="#920E14" stroke-width="3.93" stroke-miterlimit="10"/>
<path d="M129.516 91.4723H122.306C121.828 91.4723 121.369 91.2844 121.031 90.9501C120.693 90.6158 120.503 90.1623 120.503 89.6895V59.1141C120.503 58.6413 120.693 58.1878 121.031 57.8535C121.369 57.5191 121.828 57.3313 122.306 57.3313H129.516C131.39 57.3331 133.185 58.0699 134.51 59.3798C135.834 60.6898 136.579 62.466 136.581 64.3186V84.485C136.579 86.3376 135.834 88.1138 134.51 89.4237C133.185 90.7337 131.39 91.4705 129.516 91.4723Z" fill="#920E14" stroke="#920E14" stroke-width="3.63" stroke-miterlimit="10"/>
<path d="M8.31967 91.4723H15.5301C16.0081 91.4723 16.4666 91.2844 16.8047 90.9501C17.1427 90.6158 17.3326 90.1623 17.3326 89.6895V59.1141C17.3326 58.6413 17.1427 58.1878 16.8047 57.8535C16.4666 57.5191 16.0081 57.3313 15.5301 57.3313H8.31967C6.44654 57.3331 4.65065 58.0699 3.32614 59.3798C2.00163 60.6898 1.25672 62.466 1.25488 64.3186V84.485C1.25672 86.3376 2.00163 88.1138 3.32614 89.4237C4.65065 90.7337 6.44654 91.4705 8.31967 91.4723Z" fill="#920E14" stroke="#920E14" stroke-width="3.63" stroke-miterlimit="10"/>
<path d="M143.653 72.5333H134.432V76.2704H143.653V72.5333Z" fill="#920E14" stroke="#920E14" stroke-width="3.63" stroke-miterlimit="10"/>
<path d="M143.584 75.9481V6.92554H142.176V75.9481H143.584Z" fill="#920E14" stroke="#920E14" stroke-width="4.54" stroke-miterlimit="10"/>
<path d="M142.883 8.56437C144.84 8.56437 146.426 6.99561 146.426 5.06044C146.426 3.12528 144.84 1.55652 142.883 1.55652C140.927 1.55652 139.341 3.12528 139.341 5.06044C139.341 6.99561 140.927 8.56437 142.883 8.56437Z" fill="#920E14" stroke="#920E14" stroke-width="4.54" stroke-miterlimit="10"/>
<path d="M95.6553 134.76H42.6174C42.0507 134.76 41.5913 135.215 41.5913 135.775V136.152C41.5913 136.713 42.0507 137.167 42.6174 137.167H95.6553C96.222 137.167 96.6814 136.713 96.6814 136.152V135.775C96.6814 135.215 96.222 134.76 95.6553 134.76Z" fill="#920E14" stroke="#920E14" stroke-width="2.36" stroke-miterlimit="10"/>
<path d="M88.2994 140.712H49.9734C49.491 140.712 49.0999 141.099 49.0999 141.576V142.255C49.0999 142.732 49.491 143.119 49.9734 143.119H88.2994C88.7818 143.119 89.1729 142.732 89.1729 142.255V141.576C89.1729 141.099 88.7818 140.712 88.2994 140.712Z" fill="#920E14" stroke="#920E14" stroke-width="2.01" stroke-miterlimit="10"/>
</g>
<defs>
<clipPath id="clip0_214_4386">
<rect width="148" height="143.805" fill="white"/>
</clipPath>
</defs>
</svg>
