<svg width="16" height="16" viewBox="0 0 16 16" fill="none" xmlns="http://www.w3.org/2000/svg">
<path fill-rule="evenodd" clip-rule="evenodd" d="M7.99992 2.33337C4.87525 2.33337 2.33325 4.87537 2.33325 8.00004C2.33325 11.1247 4.87525 13.6667 7.99992 13.6667C11.1246 13.6667 13.6666 11.1247 13.6666 8.00004C13.6666 4.87537 11.1246 2.33337 7.99992 2.33337M7.99992 14.6667C4.32392 14.6667 1.33325 11.676 1.33325 8.00004C1.33325 4.32404 4.32392 1.33337 7.99992 1.33337C11.6759 1.33337 14.6666 4.32404 14.6666 8.00004C14.6666 11.676 11.6759 14.6667 7.99992 14.6667" fill="currentColor"/>
<path fill-rule="evenodd" clip-rule="evenodd" d="M7.03889 10.8139C6.91089 10.8139 6.78222 10.7652 6.68489 10.6665C6.49022 10.4705 6.49089 10.1545 6.68622 9.95987L8.65422 7.99987L6.68622 6.04054C6.49089 5.84587 6.49022 5.5292 6.68489 5.3332C6.87956 5.13654 7.19556 5.13787 7.39156 5.33187L9.71556 7.64587C9.80956 7.73987 9.86222 7.8672 9.86222 7.99987C9.86222 8.1332 9.80956 8.26053 9.71556 8.35453L7.39156 10.6679C7.29422 10.7652 7.16622 10.8139 7.03889 10.8139" fill="currentColor"/>
</svg>
