<svg width="28" height="28" viewBox="0 0 28 28" fill="none" xmlns="http://www.w3.org/2000/svg">
<path fill-rule="evenodd" clip-rule="evenodd" d="M7.29159 4.08325C4.08325 4.08325 4.08325 4.32592 4.08325 7.29159V7.32075C4.08325 8.61225 4.08325 9.54559 4.39942 9.93992C4.70859 10.3226 5.62675 10.4999 7.29159 10.4999C8.95642 10.4999 9.87459 10.3214 10.1838 9.93875C10.4999 9.54559 10.4999 8.61225 10.4999 7.31959C10.4999 4.32592 10.4999 4.08325 7.29159 4.08325M7.29159 12.2499C5.32459 12.2499 3.84875 12.0434 3.03792 11.0366C2.33325 10.1628 2.33325 8.97042 2.33325 7.32075L3.20825 7.29159H2.33325C2.33325 3.94325 2.54442 2.33325 7.29159 2.33325C12.0388 2.33325 12.2499 3.94325 12.2499 7.29159C12.2499 8.96925 12.2499 10.1628 11.5453 11.0366C10.7344 12.0434 9.25859 12.2499 7.29159 12.2499" fill="currentColor"/>
<path fill-rule="evenodd" clip-rule="evenodd" d="M20.1248 4.08325C16.9165 4.08325 16.9165 4.32592 16.9165 7.29159V7.32075C16.9165 8.61225 16.9165 9.54559 17.2327 9.93992C17.5418 10.3226 18.46 10.4999 20.1248 10.4999C21.7897 10.4999 22.7078 10.3214 23.017 9.93875C23.3332 9.54559 23.3332 8.61225 23.3332 7.31959C23.3332 4.32592 23.3332 4.08325 20.1248 4.08325M20.1248 12.2499C18.1578 12.2499 16.682 12.0434 15.8712 11.0366C15.1665 10.1628 15.1665 8.97042 15.1665 7.32075L16.0415 7.29159H15.1665C15.1665 3.94325 15.3777 2.33325 20.1248 2.33325C24.872 2.33325 25.0832 3.94325 25.0832 7.29159C25.0832 8.96925 25.0832 10.1628 24.3785 11.0366C23.5677 12.0434 22.0918 12.2499 20.1248 12.2499" fill="currentColor"/>
<path fill-rule="evenodd" clip-rule="evenodd" d="M7.29159 16.9165C4.08325 16.9165 4.08325 17.1592 4.08325 20.1248V20.154C4.08325 21.4455 4.08325 22.3788 4.39942 22.7732C4.70859 23.1558 5.62675 23.3332 7.29159 23.3332C8.95642 23.3332 9.87459 23.1547 10.1838 22.772C10.4999 22.3788 10.4999 21.4455 10.4999 20.1528C10.4999 17.1592 10.4999 16.9165 7.29159 16.9165M7.29159 25.0832C5.32459 25.0832 3.84875 24.8767 3.03792 23.8698C2.33325 22.996 2.33325 21.8037 2.33325 20.154L3.20825 20.1248H2.33325C2.33325 16.7765 2.54442 15.1665 7.29159 15.1665C12.0388 15.1665 12.2499 16.7765 12.2499 20.1248C12.2499 21.8025 12.2499 22.996 11.5453 23.8698C10.7344 24.8767 9.25859 25.0832 7.29159 25.0832" fill="currentColor"/>
<path fill-rule="evenodd" clip-rule="evenodd" d="M20.1248 16.9165C16.9165 16.9165 16.9165 17.1592 16.9165 20.1248V20.154C16.9165 21.4455 16.9165 22.3788 17.2327 22.7732C17.5418 23.1558 18.46 23.3332 20.1248 23.3332C21.7897 23.3332 22.7078 23.1547 23.017 22.772C23.3332 22.3788 23.3332 21.4455 23.3332 20.1528C23.3332 17.1592 23.3332 16.9165 20.1248 16.9165M20.1248 25.0832C18.1578 25.0832 16.682 24.8767 15.8712 23.8698C15.1665 22.996 15.1665 21.8037 15.1665 20.154L16.0415 20.1248H15.1665C15.1665 16.7765 15.3777 15.1665 20.1248 15.1665C24.872 15.1665 25.0832 16.7765 25.0832 20.1248C25.0832 21.8025 25.0832 22.996 24.3785 23.8698C23.5677 24.8767 22.0918 25.0832 20.1248 25.0832" fill="currentColor"/>
</svg>
