<svg width="29" height="28" viewBox="0 0 29 28" fill="none" xmlns="http://www.w3.org/2000/svg">
<mask id="mask0_293_1086" style="mask-type:luminance" maskUnits="userSpaceOnUse" x="1" y="1" width="26" height="26">
<path fill-rule="evenodd" clip-rule="evenodd" d="M1.8335 1.16699H26.9087V26.2431H1.8335V1.16699Z" fill="white"/>
</mask>
<g mask="url(#mask0_293_1086)">
<path fill-rule="evenodd" clip-rule="evenodd" d="M7.79334 22.9545C8.47001 22.9545 9.10817 23.2112 9.78367 23.483C13.9218 25.3963 18.816 24.526 22.0045 21.3387C26.2115 17.1293 26.2115 10.2822 22.0045 6.07516C19.9675 4.03816 17.2585 2.91699 14.3745 2.91699C11.4893 2.91699 8.77917 4.03933 6.74334 6.07633C3.55367 9.26366 2.68567 14.1578 4.58151 18.2563C4.85451 18.9318 5.11817 19.5898 5.11817 20.2735C5.11817 20.956 4.88367 21.6432 4.67717 22.2498C4.50684 22.7492 4.24901 23.5028 4.41467 23.6685C4.57684 23.8365 5.33517 23.5717 5.83567 23.4002C6.43651 23.1948 7.11784 22.9592 7.79334 22.9545V22.9545ZM14.3453 26.2433C12.5627 26.2433 10.7683 25.8665 9.08951 25.0895C8.59484 24.8912 8.13167 24.7045 7.79917 24.7045C7.41651 24.7068 6.90201 24.8842 6.40501 25.0557C5.38534 25.4057 4.11601 25.842 3.17684 24.9063C2.24117 23.9695 2.67284 22.7037 3.02051 21.6852C3.19201 21.1835 3.36817 20.6655 3.36817 20.2735C3.36817 19.9515 3.21301 19.5408 2.97501 18.9493C0.789839 14.2302 1.80017 8.54266 5.50667 4.83849C7.87267 2.47133 11.0215 1.16699 14.3733 1.16699C17.7252 1.16699 20.8752 2.47016 23.2412 4.83733C28.1318 9.72799 28.1318 17.6847 23.2412 22.5753C20.8437 24.974 17.6155 26.2433 14.3453 26.2433V26.2433Z" fill="currentColor"/>
</g>
<path fill-rule="evenodd" clip-rule="evenodd" d="M18.9792 15.3568C18.3352 15.3568 17.8079 14.8353 17.8079 14.1901C17.8079 13.5449 18.3247 13.0234 18.9687 13.0234H18.9792C19.6232 13.0234 20.1459 13.5449 20.1459 14.1901C20.1459 14.8353 19.6232 15.3568 18.9792 15.3568" fill="currentColor"/>
<path fill-rule="evenodd" clip-rule="evenodd" d="M14.3022 15.3568C13.6582 15.3568 13.1309 14.8353 13.1309 14.1901C13.1309 13.5449 13.6465 13.0234 14.2917 13.0234H14.3022C14.9462 13.0234 15.4689 13.5449 15.4689 14.1901C15.4689 14.8353 14.9462 15.3568 14.3022 15.3568" fill="currentColor"/>
<path fill-rule="evenodd" clip-rule="evenodd" d="M9.62495 15.3568C8.98095 15.3568 8.45361 14.8353 8.45361 14.1901C8.45361 13.5449 8.97045 13.0234 9.61445 13.0234H9.62495C10.2689 13.0234 10.7916 13.5449 10.7916 14.1901C10.7916 14.8353 10.2689 15.3568 9.62495 15.3568" fill="currentColor"/>
</svg>
