<svg width="24" height="24" viewBox="-4 -3 24 24" fill="none" xmlns="http://www.w3.org/2000/svg">
<path d="M12.3907 10.594V12.9658C12.3907 16.1282 11.2245 17.3932 8.30908 17.3932H5.5394C2.62394 17.3932 1.45776 16.1282 1.45776 12.9658V9.96153C1.45776 6.79914 2.62394 5.53418 5.5394 5.53418H7.72599" stroke="currentColor" stroke-width="1.5" stroke-linecap="round" stroke-linejoin="round"/>
<path d="M12.3903 10.594H10.0579C8.30868 10.594 7.72559 9.96153 7.72559 8.06409V5.53418L12.3903 10.594Z" stroke="currentColor" stroke-width="1.5" stroke-linecap="round" stroke-linejoin="round"/>
<path d="M8.45435 1.5813H11.3698" stroke="currentColor" stroke-width="1.5" stroke-linecap="round" stroke-linejoin="round"/>
<path d="M5.10205 3.95309C5.10205 2.6407 6.07873 1.5813 7.28864 1.5813H9.19826" stroke="currentColor" stroke-width="1.5" stroke-linecap="round" stroke-linejoin="round"/>
<path d="M16.0352 6.32471V11.2185C16.0352 12.4439 15.1168 13.4401 13.9871 13.4401" stroke="currentColor" stroke-width="1.5" stroke-linecap="round" stroke-linejoin="round"/>
<path d="M16.0348 6.32489H13.8482C12.2083 6.32489 11.6616 5.73194 11.6616 3.95309V1.5813L16.0348 6.32489Z" stroke="currentColor" stroke-width="1.5" stroke-linecap="round" stroke-linejoin="round"/>
</svg>
