<svg width="18" height="18" viewBox="0 0 18 18" fill="none" xmlns="http://www.w3.org/2000/svg">
<path fill-rule="evenodd" clip-rule="evenodd" d="M5.7495 2.625C3.852 2.625 2.625 3.92475 2.625 5.937V12.063C2.625 14.0752 3.852 15.375 5.7495 15.375H12.2513C14.1488 15.375 15.375 14.0752 15.375 12.063V5.937C15.375 3.92475 14.1488 2.625 12.2513 2.625H5.7495ZM12.2513 16.5H5.7495C3.20775 16.5 1.5 14.7165 1.5 12.063V5.937C1.5 3.2835 3.20775 1.5 5.7495 1.5H12.2513C14.793 1.5 16.5 3.2835 16.5 5.937V12.063C16.5 14.7165 14.793 16.5 12.2513 16.5V16.5Z" fill="currentColor"/>
<path fill-rule="evenodd" clip-rule="evenodd" d="M9 12.627C8.6895 12.627 8.4375 12.375 8.4375 12.0645V5.93555C8.4375 5.62505 8.6895 5.37305 9 5.37305C9.3105 5.37305 9.5625 5.62505 9.5625 5.93555V12.0645C9.5625 12.375 9.3105 12.627 9 12.627" fill="currentColor"/>
<path fill-rule="evenodd" clip-rule="evenodd" d="M9.00002 12.6278C8.85077 12.6278 8.70677 12.5685 8.60177 12.462L5.79077 9.63901C5.57102 9.41851 5.57252 9.06226 5.79227 8.84326C6.01277 8.62501 6.36827 8.62351 6.58727 8.84476L9.00002 11.268L11.4128 8.84476C11.6325 8.62351 11.988 8.62501 12.2078 8.84326C12.4275 9.06226 12.429 9.41851 12.2093 9.63901L9.39827 12.462C9.29327 12.5685 9.14927 12.6278 9.00002 12.6278" fill="currentColor"/>
</svg>
