<svg width="22" height="22" viewBox="0 0 22 22" fill="none" xmlns="http://www.w3.org/2000/svg">
<rect width="22" height="22" rx="11" fill="#3A3A3A"/>
<path d="M14.6661 8.33395L14.666 8.33394C14.6649 8.3328 14.6638 8.33166 14.6626 8.33052C14.6508 8.31867 14.6391 8.30692 14.6274 8.29527C14.4522 8.11963 14.301 7.96812 14.1326 7.86962C13.6647 7.59574 13.0853 7.59574 12.6174 7.86962C12.449 7.96812 12.2978 8.11963 12.1226 8.29527C12.1098 8.30804 12.097 8.32093 12.0839 8.33395L7.78816 12.6297L7.78816 12.6297C7.77714 12.6408 7.76619 12.6517 7.75533 12.6625C7.59286 12.8246 7.44903 12.9682 7.34766 13.1472C7.2463 13.3262 7.19723 13.5234 7.14179 13.7461C7.13809 13.761 7.13435 13.776 7.13057 13.7912L6.84204 14.9453C6.83983 14.9541 6.8376 14.963 6.83536 14.972C6.79612 15.1287 6.75421 15.296 6.74046 15.4365C6.72532 15.5913 6.72885 15.8523 6.93826 16.0617C7.14767 16.2711 7.40873 16.2747 7.56346 16.2595C7.704 16.2458 7.87134 16.2039 8.02803 16.1646C8.03696 16.1624 8.04586 16.1602 8.05472 16.158L9.20884 15.8694C9.22396 15.8656 9.23897 15.8619 9.25386 15.8582C9.47659 15.8028 9.67377 15.7537 9.8528 15.6523L9.60645 15.2172L9.8528 15.6523C10.0318 15.551 10.1754 15.4071 10.3375 15.2447C10.3483 15.2338 10.3592 15.2229 10.3703 15.2118L14.6661 10.9161C14.6791 10.903 14.692 10.8902 14.7047 10.8774C14.8804 10.7022 15.0319 10.551 15.1304 10.3826C15.4043 9.91467 15.4043 9.33533 15.1304 8.86735C15.0319 8.69904 14.8804 8.54785 14.7047 8.37257C14.692 8.35983 14.6791 8.34696 14.6661 8.33395Z" stroke="#FFF3F4"/>
<path d="M11.8125 8.6875L13.6875 7.4375L15.5625 9.3125L14.3125 11.1875L11.8125 8.6875Z" fill="#FFF3F4"/>
</svg>
