<svg width="28" height="28" viewBox="0 0 28 28" fill="none" xmlns="http://www.w3.org/2000/svg">
<path d="M24.5 18.6666C24.5 21.9664 24.5 23.6163 23.4749 24.6415C22.4497 25.6666 20.7998 25.6666 17.5 25.6666H10.5C7.20017 25.6666 5.55025 25.6666 4.52513 24.6415C3.5 23.6163 3.5 21.9664 3.5 18.6666V9.33325C3.5 6.03342 3.5 4.3835 4.52513 3.35838C5.55025 2.33325 7.20017 2.33325 10.5 2.33325H17.5C20.7998 2.33325 22.4497 2.33325 23.4749 3.35838C24.5 4.3835 24.5 6.03342 24.5 9.33325V13.9999" stroke="currentColor" stroke-width="1.5" stroke-linecap="round"/>
<path d="M9.33337 2.33325V6.99992M9.33337 25.6666V11.6666" stroke="currentColor" stroke-width="1.5" stroke-linecap="round"/>
<path d="M2.33337 14H4.66671" stroke="currentColor" stroke-width="1.5" stroke-linecap="round"/>
<path d="M2.33337 18.6667H4.66671" stroke="currentColor" stroke-width="1.5" stroke-linecap="round"/>
<path d="M2.33337 9.33325H4.66671" stroke="currentColor" stroke-width="1.5" stroke-linecap="round"/>
<path d="M13.4166 7.58325H19.25" stroke="currentColor" stroke-width="1.5" stroke-linecap="round"/>
<path d="M13.4166 11.6667H19.25" stroke="currentColor" stroke-width="1.5" stroke-linecap="round"/>
</svg>
