<svg width="28" height="28" viewBox="0 0 28 28" fill="none" xmlns="http://www.w3.org/2000/svg">
<mask id="mask0_293_1899" style="mask-type:luminance" maskUnits="userSpaceOnUse" x="4" y="16" width="20" height="10">
<path fill-rule="evenodd" clip-rule="evenodd" d="M4.66675 16.9121H23.1466V25.5151H4.66675V16.9121Z" fill="white"/>
</mask>
<g mask="url(#mask0_293_1899)">
<path fill-rule="evenodd" clip-rule="evenodd" d="M13.9079 18.6621C8.93675 18.6621 6.41675 19.5161 6.41675 21.2019C6.41675 22.9029 8.93675 23.7651 13.9079 23.7651C18.8779 23.7651 21.3967 22.9111 21.3967 21.2253C21.3967 19.5243 18.8779 18.6621 13.9079 18.6621M13.9079 25.5151C11.6224 25.5151 4.66675 25.5151 4.66675 21.2019C4.66675 17.3566 9.94125 16.9121 13.9079 16.9121C16.1934 16.9121 23.1467 16.9121 23.1467 21.2253C23.1467 25.0706 17.8734 25.5151 13.9079 25.5151" fill="currentColor"/>
</g>
<mask id="mask1_293_1899" style="mask-type:luminance" maskUnits="userSpaceOnUse" x="7" y="2" width="14" height="13">
<path fill-rule="evenodd" clip-rule="evenodd" d="M7.71167 2.3335H20.1017V14.7219H7.71167V2.3335Z" fill="white"/>
</mask>
<g mask="url(#mask1_293_1899)">
<path fill-rule="evenodd" clip-rule="evenodd" d="M13.9079 3.99901C11.41 3.99901 9.37771 6.03017 9.37771 8.52801C9.36954 11.0177 11.3867 13.0477 13.874 13.057L13.9079 13.89V13.057C16.4045 13.057 18.4357 11.0247 18.4357 8.52801C18.4357 6.03017 16.4045 3.99901 13.9079 3.99901M13.9079 14.7218H13.8705C10.4615 14.7113 7.70004 11.9312 7.71171 8.52451C7.71171 5.11201 10.4907 2.33301 13.9079 2.33301C17.3239 2.33301 20.1017 5.11201 20.1017 8.52801C20.1017 11.944 17.3239 14.7218 13.9079 14.7218" fill="currentColor"/>
</g>
</svg>
