<svg width="28" height="28" viewBox="0 0 28 28" fill="none" xmlns="http://www.w3.org/2000/svg">
<path d="M16.3333 8.24863C14.9605 7.45451 13.3667 7 11.6667 7C6.51201 7 2.33333 11.1787 2.33333 16.3333C2.33333 17.8264 2.68391 19.2375 3.30723 20.489C3.47288 20.8215 3.52801 21.2017 3.43198 21.5606L2.87608 23.6382C2.63476 24.5401 3.45988 25.3652 4.36179 25.1239L6.43943 24.568C6.79834 24.472 7.17846 24.5271 7.51103 24.6928C8.76247 25.3161 10.1736 25.6667 11.6667 25.6667C16.8213 25.6667 21 21.488 21 16.3333C21 14.6333 20.5455 13.0395 19.7514 11.6667" stroke="currentColor" stroke-width="1.5" stroke-linecap="round"/>
<path d="M20.9999 16.919C21.0775 16.8866 21.1544 16.853 21.2306 16.8182C21.653 16.6253 22.127 16.5531 22.5756 16.6731L23.131 16.8217C24.2584 17.1234 25.2898 16.092 24.9882 14.9646L24.8396 14.4092C24.7195 13.9606 24.7917 13.4866 24.9846 13.0642C25.4226 12.1055 25.6666 11.0397 25.6666 9.91683C25.6666 8.4304 25.2389 7.04385 24.4999 5.87353M11.0833 6.99503C12.2273 4.25731 14.9306 2.3335 18.0833 2.3335C19.5867 2.3335 20.9879 2.77099 22.1666 3.52562" stroke="currentColor" stroke-width="1.5" stroke-linecap="round"/>
<path d="M7.60474 16.3335H7.61524M11.6772 16.3335H11.6877M15.7501 16.3335H15.7606" stroke="currentColor" stroke-width="2" stroke-linecap="round" stroke-linejoin="round"/>
</svg>
